<svg xmlns="http://www.w3.org/2000/svg" width="446" height="203" viewBox="0 0 446 203">
  <path d="m436.1 60.01c-4.33-4.03-9.93-4.2-14.37-2.93-6.3 1.85-7.88 6.88-9.52 13.66-3.33 14.01-9 33.12-16.59 33.12-3.45 0-6.78-3.49-1.02-18.75 3.08-8.12 4.32-12.36 4.32-18.13 0-6.87-5.19-10.26-14.9-10.26-4.97 0-9.27 2.47-8.33 6.39 0.98 4.14-1.99 14.14-6.02 24.14-3.62 9.02-7.48 16.61-14.35 16.61-4.17 0-5.2-6.97 1.77-27.63 9.88-29.92 14.98-41.7 18.88-48.1 1.9-3.25 0.92-4.92-1.1-6.46-4.78-3.62-11.18-2.96-15.75-1.01-8.12 3.36-18.25 33.28-27.35 62.15-2.05 6.87-8.19 20.38-13.63 20.38-6.2 0-4.25-11.11 2.23-30.07 7.48-22.93 13.7-37.86 16.81-44.26 1.64-3.62 0.53-5.12-1.49-6.66-4.34-3.22-10.9-3.65-15.68-1.54-7.04 3.08-11.74 17.28-19.94 39.2-3.08-2.93-6.77-4.73-12.54-4.73-16.85 0-27.56 14.75-34.11 33.72-3.25 8.88-6.65 14.57-11.43 14.57-3.25 0-6.11-3.78-0.8-16.1 4.42-10.18 7.2-16.21 5.01-23.59-1.95-6.8-7.53-8.82-14.33-8.6-9.17 0.3-15.72 6.78-21.85 14.98 0.91-7.38 0-14.5-10.34-14.5-4.78 0-10.97 1.54-11.2 5.47-0.15 3.25 0.44 3.03-1.36 11.67-3.25 15.26-11.05 34.16-30.77 34.16-7.58 0-11.61-4.5-12.69-10.27 15.69 2.93 34.59-8.93 34.59-26.99 0-10.41-7.66-14.59-18.6-14.59-22.41 0-41.16 24.65-41.16 46.25 0 16.63 9.64 26.91 27.69 26.91 11.76 0 21.64-6.4 28.61-12.42 0 8.12 4.33 12.42 13.08 12.42 5.31 0 11.58-1.54 11.36-6.25-0.59-11.86 6.11-29.59 11.8-40.93 2.79-5.33 5.96-9.43 9.14-9.43 3 0 3.07 3.62 0.98 9.43-4.08 11.57-9.1 19.41-9.1 30.27 0 10.41 6.27 16.91 15.66 16.91 10.18 0 17.37-6.8 22.96-15.07 1.72 8.97 6.96 14.81 16.53 14.81 9.02 0 16.21-7.92 21.14-15.71 1.29 9.72 4.83 15.89 15.24 15.89 9.64 0 17.23-7.02 22.99-13.72 1.88 8.71 7.12 13.54 15.54 13.54 9.39 0 15.51-6.72 21.43-13.27 1.46 8.44 6.87 13.53 15.37 13.53 9.02 0 15.5-5.77 20.2-12.42-3.41 17.81-16.28 55.64-38.69 55.64-10.18 0-12.65-6.57-12.14-9.5 0.94-4.83 4.97-5.93 7.83-5.7 4.64 0.36 3.68 5.19 7.06 6.13 5.41 1.54 8.2-5.11 8.2-10.17 0-9.49-8.2-17.48-19.82-17.48-14.47 0-23.42 13.71-23.42 27.88 0 15.71 12.59 29.72 32.29 29.72 32.68 1.01 47.15-25.78 55.65-57.98 8.12-31.07 10.44-52.71 19.61-69.19 1.72-2.54 2.51-3.12 0.42-5.14zm-277.7 6.64c4.12 0 4.78 3.08 4.2 6.47-1.54 8.59-11.25 15.14-19.06 15.04 2.4-9.1 8.29-21.51 14.86-21.51zm123.2 33.47c-5.42 0-7.3-6.88-4.12-18.06 2.86-9.79 8.03-14.03 11.72-14.03 4.78 0 6.24 4.84 4.48 12.03-2.19 9.32-7.29 20.06-12.08 20.06z" fill="#AC8EF5"/>
  <path d="m249.2 132.2c-4.12 0-7.64 1.01-7.56 4.86 0.43 10.74-13.52 21.78-39.62 21.78-35.57 0-61.22-10.58-91.35-30.59 5.34-19.19-2.07-39.6-15.54-56.08-9.02-11.29-15.16-19.48-15.74-26.1-1.08-10.48 6.59-17.86 14.48-17.86 7.81 0 10.91 4.5 10.91 9.08 0 5.48-4.05 10.61-11.56 11.35-3.15 0.33-3.5 1.65-3.07 4.5 0.96 6.03 8.62 11 17.04 10.62 12.95-0.62 20.21-12.96 20.21-24.66 0-15-11.91-27.94-32.77-27.94-25.23 0-40.5 16.98-40.5 37.73 0 13.95 5.87 22.48 15.87 36.35 7.97 11.43 12.57 17.7 13.38 27.24-12.8-9.26-25.14-15.03-40.33-15.03-22.41 0-33.35 15.63-33.35 31.91 0 20.18 16.7 38.24 46.19 38.24 21.93 0 38.26-9.85 48.74-23.78 31.38 24.14 62.76 44.47 108.5 44.47 33.89 0 51.25-19.52 51.25-33.38 0-12.6-6.47-22.71-15.18-22.71zm-193.7 6.2c-13.47 0-21.97-5.69-21.97-13.56 0-6.54 5.34-10.86 13.3-10.86 9.5 0 21.04 6.47 32.8 13-3.44 7.04-10.78 11.42-24.13 11.42z" fill="#AC8EF5"/>
</svg>
